<svg t="1627279187848" class="icon" viewBox="0 0 1024 1024" version="1.1" xmlns="http://www.w3.org/2000/svg" p-id="1189" width="200" height="200"><path d="M512 0a512 512 0 1 0 512 512 512 512 0 0 0-512-512z m256 460.8a158.08 158.08 0 0 1-85.12 64 54.4 54.4 0 0 1-25.6 4.48 30.08 30.08 0 0 1 0-59.52h8.32a90.24 90.24 0 0 0 55.68-42.88 69.12 69.12 0 0 0 12.8-38.4A90.24 90.24 0 0 0 640 303.36a113.92 113.92 0 0 0-51.2 12.8 81.28 81.28 0 0 0-42.88 68.48v243.2a135.04 135.04 0 0 1-72.32 119.68 176.64 176.64 0 0 1-81.28 21.12 147.84 147.84 0 0 1-153.6-140.8 128 128 0 0 1 21.12-68.48 158.08 158.08 0 0 1 85.12-64 54.4 54.4 0 0 1 25.6-4.48 30.08 30.08 0 1 1 0 59.52h-8.32a90.24 90.24 0 0 0-55.68 42.88 69.12 69.12 0 0 0-12.8 38.4 90.24 90.24 0 0 0 94.08 85.12 113.92 113.92 0 0 0 51.2-12.8 81.28 81.28 0 0 0 42.88-68.48V388.48A145.92 145.92 0 0 1 554.24 268.8a176.64 176.64 0 0 1 81.28-21.12 147.84 147.84 0 0 1 153.6 140.8A144 144 0 0 1 768 460.8z" fill="#24AF41" p-id="1190"></path></svg>