<svg t="1627199515796" class="icon" viewBox="0 0 1024 1024" version="1.1" xmlns="http://www.w3.org/2000/svg" p-id="1333" width="240" height="240"><path d="M512 512m-486.4 0a486.4 486.4 0 1 0 972.8 0 486.4 486.4 0 1 0-972.8 0Z" fill="#63C96D" p-id="1334"></path><path d="M630.07573333 264.53333333C710.8608 264.53333333 776.55893333 324.26666667 776.55893333 398.1056c0 22.94613333-6.74133333 45.39733333-18.90986666 65.62986667-18.42346667 29.568-47.88053333 51.456-83.52426667 61.86666666a83.39626667 83.39626667 0 0 1-23.3472 3.80586667 27.28106667 27.28106667 0 0 1-27.776-27.3408c0-15.37706667 12.2368-27.3152 27.776-27.3152 1.09226667 0 3.37066667 0 6.144-1.05813333 23.94453333-6.61333333 42.86293333-20.24106667 53.44426667-38.35733334 7.20213333-11.43466667 10.58133333-24.1408 10.58133333-37.23093333 0-43.32373333-40.6784-78.7968-90.28266667-78.7968-17.1008 0.0256-33.92853333 4.34346667-48.93013333 12.56106667-26.25706667 14.7456-41.79626667 39.3472-41.79626667 66.23573333v229.34186667c0 46.49813333-26.22293333 89.216-69.67466666 113.32266666a155.392 155.392 0 0 1-76.3136 19.77173334C313.19893333 760.53333333 247.46666667 700.78293333 247.46666667 626.944c0-22.912 6.77546667-45.39733333 18.90986666-65.6384 18.42346667-29.55946667 47.91466667-51.44746667 83.5328-61.83253333 9.984-2.7392 16.72533333-3.79733333 23.33866667-3.79733334 15.6416 0 27.81866667 12.06613333 27.81866667 27.30666667a27.28106667 27.28106667 0 0 1-27.78453334 27.34933333c-1.1264 0-3.4048 0-6.144 1.05813334-23.97866667 7.10826667-42.8544 20.82986667-53.43573333 38.3232-7.25333333 11.47733333-10.58133333 24.1408-10.58133333 37.26506666 0 43.3152 40.66986667 78.76266667 90.7264 78.76266667a102.17813333 102.17813333 0 0 0 48.98133333-12.52693333c26.2144-14.77973333 41.7536-39.38133333 41.7536-66.23573334v-228.77866666c0-46.49813333 26.22293333-89.18186667 69.67466667-113.32266667A146.4832 146.4832 0 0 1 630.07573333 264.53333333z" fill="#FFFFFF" p-id="1335"></path></svg>