<svg 
 xmlns="http://www.w3.org/2000/svg"
 xmlns:xlink="http://www.w3.org/1999/xlink"
 width="64px" height="58px">
<path fill-rule="evenodd"  fill="rgb(255, 93, 70)"
 d="M52.175,48.608 C52.521,51.514 56.018,55.121 59.259,56.086 C55.202,58.209 48.784,56.677 45.237,52.284 C41.202,53.855 36.722,54.737 32.000,54.737 C14.327,54.737 -0.001,42.483 -0.001,27.368 C-0.001,12.252 14.327,-0.001 32.000,-0.001 C49.672,-0.001 63.999,12.252 63.999,27.368 C63.999,35.940 59.388,43.589 52.175,48.608 ZM47.000,13.000 C46.366,12.871 44.148,12.582 43.000,14.000 C41.852,15.418 32.403,29.114 31.000,29.000 C29.597,28.886 29.366,26.769 27.000,20.000 C24.634,13.231 23.406,13.000 22.000,13.000 C20.594,13.000 19.209,14.379 19.000,18.000 C18.791,21.621 14.000,38.069 14.000,40.000 C14.000,41.931 15.661,43.377 18.000,43.000 C20.339,42.623 23.000,23.000 23.000,23.000 C23.000,23.000 24.894,26.184 26.000,30.000 C27.106,33.815 28.223,35.000 30.000,35.000 C31.777,35.000 32.549,34.904 35.000,32.000 C37.451,29.096 44.000,21.000 44.000,21.000 C44.000,21.000 42.415,31.432 42.000,36.000 C41.623,40.157 42.518,43.000 45.000,43.000 C47.482,43.000 47.093,36.438 47.000,34.000 C46.907,31.562 48.356,22.205 49.000,18.000 C49.644,13.795 47.634,13.129 47.000,13.000 Z"/>
</svg>