<svg t="1595401715463" class="icon" viewBox="0 0 1024 1024" version="1.1" xmlns="http://www.w3.org/2000/svg" p-id="12635" width="200" height="200"><path d="M512 992C246.896 992 32 777.104 32 512 32 246.896 246.896 32 512 32c265.104 0 480 214.896 480 480 0 265.104-214.896 480-480 480z m280.832-632.832c-12.128-12.128-31.808-12.128-43.936 0l-301.36 301.36-171.504-171.504c-11.872-11.888-31.136-11.888-43.008 0-11.888 11.872-11.888 31.136 0 43.008l186.64 186.64c1.456 2.912 3.024 5.792 5.456 8.224 12.112 12.128 31.792 12.128 43.92 0l323.792-323.792c12.128-12.128 12.128-31.808 0-43.936z" p-id="12636"></path></svg>
