<svg
 xmlns="http://www.w3.org/2000/svg"
 xmlns:xlink="http://www.w3.org/1999/xlink"
 width="62px" height="62px">
<path fill-rule="evenodd"  fill="rgb(107, 107, 107)"
 d="M55.927,37.965 C52.716,48.392 43.011,55.998 31.541,55.998 C17.456,55.998 5.998,44.540 5.998,30.455 C5.998,18.985 13.605,9.280 24.032,6.068 C24.185,6.021 24.341,5.997 24.496,5.997 C24.962,5.997 25.414,6.206 25.717,6.581 C26.121,7.080 26.181,7.776 25.867,8.336 C24.226,11.276 20.490,10.465 18.290,20.273 C15.256,36.227 27.251,47.174 41.723,43.707 C50.131,41.907 50.718,37.770 53.661,36.129 C53.899,35.995 54.164,35.930 54.425,35.930 C54.778,35.930 55.128,36.049 55.414,36.281 C55.914,36.684 56.117,37.351 55.927,37.965 ZM50.003,22.177 L51.331,28.952 C51.392,29.277 51.306,29.607 51.047,29.811 C50.897,29.932 50.703,29.999 50.508,29.999 C50.382,29.999 50.265,29.973 50.161,29.922 L43.996,27.189 L37.841,29.919 C37.733,29.968 37.613,29.994 37.490,29.994 C37.288,29.994 37.091,29.927 36.938,29.807 C36.683,29.602 36.597,29.280 36.663,28.950 L37.986,22.177 L33.253,17.447 C33.025,17.216 32.940,16.883 33.033,16.579 C33.127,16.270 33.380,16.039 33.694,15.974 L40.490,14.614 L43.197,8.517 C43.340,8.202 43.652,7.999 43.996,7.999 C44.341,7.999 44.653,8.201 44.792,8.515 L47.502,14.614 L54.297,15.974 C54.612,16.039 54.867,16.271 54.961,16.580 C55.055,16.886 54.969,17.219 54.741,17.447 L50.003,22.177 Z"/>
</svg>
