<svg
 xmlns="http://www.w3.org/2000/svg"
 xmlns:xlink="http://www.w3.org/1999/xlink"
 width="60px" height="60px">
<path fill-rule="evenodd"  fill="rgb(182, 182, 182)"
 d="M52.411,10.413 L26.411,36.413 C25.629,37.195 24.364,37.195 23.583,36.413 C22.801,35.632 22.801,34.366 23.583,33.585 L49.584,7.585 C50.364,6.804 51.631,6.804 52.411,7.585 C53.193,8.366 53.193,9.632 52.411,10.413 ZM10.997,48.999 L44.998,48.999 L44.998,34.999 L48.996,34.999 L48.996,50.999 C48.996,52.103 48.101,52.999 46.997,52.999 L8.996,52.999 C7.891,52.999 6.996,52.103 6.996,50.999 L6.996,12.999 C6.996,11.894 7.891,10.999 8.996,10.999 L24.996,10.999 L24.996,14.999 L10.997,14.999 L10.997,48.999 Z"/>
</svg>
