<svg 
 xmlns="http://www.w3.org/2000/svg"
 xmlns:xlink="http://www.w3.org/1999/xlink"
 width="60px" height="64px">
<path fill-rule="evenodd"  fill="rgb(255, 93, 70)"
 d="M57.444,51.430 C55.615,50.809 53.818,50.301 52.049,49.873 C49.287,60.324 40.907,63.998 33.000,63.998 L25.999,63.998 C19.733,63.998 12.760,61.673 8.633,55.518 C5.061,57.447 3.063,59.002 3.063,59.002 C3.063,59.002 0.046,48.676 0.031,39.248 C0.018,31.382 0.986,24.140 1.005,24.045 C2.005,18.932 7.001,0.000 31.037,0.000 C56.093,0.000 58.997,24.624 58.997,24.624 C58.997,24.624 59.997,30.187 59.997,35.166 C59.997,46.555 57.444,51.430 57.444,51.430 ZM49.000,35.909 C48.701,35.046 47.515,32.275 43.999,29.998 C41.061,28.097 38.227,26.872 37.009,23.779 C37.009,23.779 33.739,31.591 24.865,31.591 C16.741,31.591 10.212,37.125 9.163,44.052 C10.339,55.960 18.329,59.999 25.937,59.999 L31.916,59.999 C38.355,59.999 45.149,57.094 47.815,48.991 C47.994,48.447 48.152,47.880 48.294,47.292 C48.312,47.218 48.327,47.140 48.345,47.063 C48.466,46.536 48.573,45.992 48.662,45.426 C48.700,45.175 48.727,44.911 48.759,44.650 C48.814,44.218 48.871,43.787 48.907,43.331 C48.963,42.569 49.000,41.785 49.000,40.961 L49.000,35.909 ZM53.453,36.169 C53.286,36.169 53.145,36.177 53.000,36.183 L53.000,46.831 C55.826,45.321 56.753,41.623 56.753,39.907 C56.753,37.851 55.433,36.169 53.453,36.169 ZM39.000,51.999 C36.791,51.999 35.000,48.865 35.000,45.000 C35.000,41.134 36.791,37.999 39.000,37.999 C41.209,37.999 43.000,41.134 43.000,45.000 C43.000,48.865 41.209,51.999 39.000,51.999 ZM20.000,51.999 C17.791,51.999 16.000,48.865 16.000,45.000 C16.000,41.134 17.791,37.999 20.000,37.999 C22.209,37.999 24.000,41.134 24.000,45.000 C24.000,48.865 22.209,51.999 20.000,51.999 Z"/>
</svg>