<svg
 xmlns="http://www.w3.org/2000/svg"
 xmlns:xlink="http://www.w3.org/1999/xlink"
 width="60px" height="60px">
<path fill-rule="evenodd"  fill="rgb(182, 182, 182)"
 d="M50.996,28.999 L49.996,28.999 L49.996,50.999 C49.996,52.104 49.103,52.999 47.997,52.999 L11.997,52.999 C10.892,52.999 9.997,52.104 9.997,50.999 L9.997,28.999 L8.996,28.999 C7.893,28.999 6.997,28.103 6.997,26.999 L6.997,18.999 C6.997,17.894 7.893,16.999 8.996,16.999 L12.997,16.999 L12.997,10.999 C12.997,9.895 13.892,8.999 14.996,8.999 L24.996,8.999 C26.102,8.999 26.997,9.895 26.997,10.999 L31.997,10.999 C31.997,9.895 32.893,8.999 33.996,8.999 L43.999,8.999 C45.101,8.999 45.996,9.895 45.996,10.999 L45.996,16.999 L50.996,16.999 C52.102,16.999 52.995,17.894 52.995,18.999 L52.995,26.999 C52.995,28.103 52.102,28.999 50.996,28.999 ZM13.998,48.999 L45.996,48.999 L45.996,28.999 L13.998,28.999 L13.998,48.999 ZM22.998,12.999 L16.996,12.999 L16.996,16.999 L22.998,16.999 L22.998,12.999 ZM31.997,14.999 L26.997,14.999 L26.997,16.999 L31.997,16.999 L31.997,14.999 ZM41.996,12.999 L35.997,12.999 L35.997,16.999 L41.996,16.999 L41.996,12.999 ZM48.997,20.999 L10.997,20.999 L10.997,24.999 L48.997,24.999 L48.997,20.999 Z"/>
</svg>
