<svg 
 xmlns="http://www.w3.org/2000/svg"
 xmlns:xlink="http://www.w3.org/1999/xlink"
 width="37px" height="50px">
<path fill-rule="evenodd"  fill="rgb(153, 153, 153)"
 d="M18.499,49.999 C8.299,49.999 -0.001,41.734 -0.001,31.578 C-0.001,25.335 3.142,19.816 7.928,16.483 L7.928,10.526 C7.928,4.720 12.669,-0.001 18.499,-0.001 C24.329,-0.001 29.070,4.720 29.070,10.526 L29.070,16.483 C33.856,19.816 36.999,25.335 36.999,31.578 C36.999,41.734 28.699,49.999 18.499,49.999 ZM23.785,10.526 C23.785,7.624 21.413,5.262 18.499,5.262 C15.585,5.262 13.214,7.624 13.214,10.526 L13.214,13.933 C14.890,13.434 16.662,13.157 18.499,13.157 C20.337,13.157 22.109,13.434 23.785,13.933 L23.785,10.526 ZM18.499,18.420 C11.213,18.420 5.285,24.323 5.285,31.578 C5.285,38.833 11.213,44.736 18.499,44.736 C25.785,44.736 31.713,38.833 31.713,31.578 C31.713,24.323 25.785,18.420 18.499,18.420 ZM21.142,33.479 L21.142,39.473 L15.856,39.473 L15.856,33.479 C14.283,32.568 13.214,30.890 13.214,28.947 C13.214,26.039 15.580,23.684 18.499,23.684 C21.418,23.684 23.785,26.039 23.785,28.947 C23.785,30.890 22.715,32.568 21.142,33.479 Z"/>
</svg>