<svg
 xmlns="http://www.w3.org/2000/svg"
 xmlns:xlink="http://www.w3.org/1999/xlink"
 width="60px" height="60px">
<path fill-rule="evenodd"  fill="rgb(182, 182, 182)"
 d="M50.998,46.999 L8.996,46.999 C7.893,46.999 6.996,46.103 6.996,44.999 L6.996,14.999 C6.996,13.895 7.893,12.999 8.996,12.999 L50.998,12.999 C52.102,12.999 52.996,13.895 52.996,14.999 L52.996,44.999 C52.996,46.103 52.102,46.999 50.998,46.999 ZM48.996,16.999 L10.997,16.999 L10.997,42.999 L48.996,42.999 L48.996,16.999 ZM19.247,21.437 L29.998,29.437 L40.748,21.437 C41.608,20.748 42.869,20.886 43.559,21.750 C44.249,22.612 44.109,23.871 43.245,24.561 L31.245,33.561 C30.880,33.852 30.440,33.999 29.998,33.999 C29.554,33.999 29.114,33.852 28.749,33.561 L16.748,24.561 C15.885,23.871 15.746,22.612 16.435,21.750 C17.125,20.887 18.385,20.748 19.247,21.437 Z"/>
</svg>
