<svg 
 xmlns="http://www.w3.org/2000/svg"
 xmlns:xlink="http://www.w3.org/1999/xlink"
 width="64px" height="50px">
<path fill-rule="evenodd"  fill="rgb(69, 199, 0)"
 d="M63.999,41.986 L63.999,43.999 C63.999,47.312 61.313,49.999 57.999,49.999 L5.999,49.999 C2.685,49.999 -0.001,47.312 -0.001,43.999 L-0.001,41.986 C1.278,41.985 2.557,41.497 3.533,40.523 C5.487,38.569 5.487,35.407 3.533,33.455 C2.557,32.481 1.278,31.993 -0.001,31.992 L-0.001,5.999 C-0.001,2.685 2.685,-0.002 5.999,-0.002 L57.999,-0.002 C61.313,-0.002 63.999,2.685 63.999,5.999 L63.999,31.992 C62.717,31.991 61.435,32.478 60.457,33.455 C58.502,35.407 58.502,38.569 60.457,40.523 C61.435,41.500 62.717,41.987 63.999,41.986 ZM39.000,37.999 L44.999,37.999 L44.999,34.999 L39.000,34.999 L39.000,37.999 ZM18.999,37.999 L25.000,37.999 L25.000,34.999 L18.999,34.999 L18.999,37.999 ZM8.999,37.999 L14.999,37.999 L14.999,34.999 L8.999,34.999 L8.999,37.999 ZM24.117,11.700 C22.724,10.260 20.867,9.541 18.547,9.541 C17.265,9.541 16.134,9.748 15.152,10.164 C14.415,10.472 13.736,10.944 13.117,11.582 C12.497,12.219 12.009,12.939 11.651,13.741 C11.171,14.830 10.931,16.176 10.931,17.780 C10.931,20.287 11.622,22.254 13.004,23.683 C14.386,25.111 16.248,25.826 18.590,25.826 C20.903,25.826 22.751,25.108 24.133,23.672 C25.515,22.236 26.206,20.247 26.206,17.705 C26.206,15.141 25.510,13.140 24.117,11.700 ZM28.999,37.999 L34.999,37.999 L34.999,34.999 L28.999,34.999 L28.999,37.999 ZM40.055,9.809 L29.259,9.809 L29.259,25.557 L32.439,25.557 L32.439,18.865 L39.013,18.865 L39.013,16.201 L32.439,16.201 L32.439,12.473 L40.055,12.473 L40.055,9.809 ZM54.044,9.809 L43.248,9.809 L43.248,25.557 L46.427,25.557 L46.427,18.865 L53.001,18.865 L53.001,16.201 L46.427,16.201 L46.427,12.473 L54.044,12.473 L54.044,9.809 ZM54.999,34.999 L48.999,34.999 L48.999,37.999 L54.999,37.999 L54.999,34.999 ZM18.579,23.108 C17.312,23.108 16.266,22.648 15.442,21.728 C14.619,20.808 14.207,19.456 14.207,17.672 C14.207,15.861 14.608,14.506 15.410,13.607 C16.212,12.708 17.269,12.258 18.579,12.258 C19.890,12.258 20.941,12.703 21.732,13.591 C22.523,14.479 22.919,15.825 22.919,17.630 C22.919,19.456 22.513,20.825 21.700,21.739 C20.887,22.652 19.847,23.108 18.579,23.108 Z"/>
</svg>