<svg 
 xmlns="http://www.w3.org/2000/svg"
 xmlns:xlink="http://www.w3.org/1999/xlink"
 width="44px" height="44px">
<path fill-rule="evenodd"  fill="rgb(223, 215, 201)"
 d="M41.999,43.999 L1.999,43.999 C0.894,43.999 -0.001,43.103 -0.001,41.999 L-0.001,1.999 C-0.001,0.895 0.894,-0.001 1.999,-0.001 L15.999,-0.001 L15.999,4.000 L3.999,4.000 L3.999,39.999 L39.999,39.999 L39.999,27.999 L43.999,27.999 L43.999,41.999 C43.999,43.103 43.104,43.999 41.999,43.999 ZM41.792,18.356 C41.241,18.356 40.741,18.132 40.378,17.771 C40.017,17.409 39.793,16.909 39.793,16.357 L39.793,7.042 L19.650,27.185 C18.870,27.967 17.604,27.967 16.822,27.185 C16.040,26.404 16.041,25.138 16.822,24.357 L36.964,4.215 L27.650,4.214 C26.546,4.215 25.650,3.319 25.650,2.215 C25.650,1.110 26.546,0.215 27.650,0.215 L41.790,0.215 C42.888,0.214 43.794,1.116 43.792,2.217 L43.792,16.356 C43.792,17.461 42.898,18.356 41.792,18.356 Z"/>
</svg>