<svg
 xmlns="http://www.w3.org/2000/svg"
 xmlns:xlink="http://www.w3.org/1999/xlink"
 width="62px" height="62px">
<path fill-rule="evenodd"  fill="rgb(107, 107, 107)"
 d="M53.999,33.998 L19.998,33.998 C18.893,33.998 17.997,32.103 17.997,30.997 C17.997,29.893 18.893,27.998 19.998,27.998 L53.999,27.998 C55.104,27.998 55.998,29.893 55.998,30.997 C55.998,32.103 55.104,33.998 53.999,33.998 ZM53.999,15.998 L19.998,15.998 C18.893,15.998 17.997,14.103 17.997,12.997 C17.997,11.892 18.893,9.997 19.998,9.997 L53.999,9.997 C55.104,9.997 55.998,11.892 55.998,12.997 C55.998,14.103 55.104,15.998 53.999,15.998 ZM9.998,51.998 L7.998,51.998 C6.893,51.998 5.999,50.104 5.999,48.998 C5.999,47.892 6.893,45.998 7.998,45.998 L9.998,45.998 C11.104,45.998 11.999,47.892 11.999,48.998 C11.999,50.104 11.104,51.998 9.998,51.998 ZM9.998,33.998 L7.998,33.998 C6.893,33.998 5.999,32.103 5.999,30.997 C5.999,29.893 6.893,27.998 7.998,27.998 L9.998,27.998 C11.104,27.998 11.999,29.893 11.999,30.997 C11.999,32.103 11.104,33.998 9.998,33.998 ZM9.998,15.998 L7.998,15.998 C6.893,15.998 5.999,14.103 5.999,12.997 C5.999,11.892 6.893,9.997 7.998,9.997 L9.998,9.997 C11.104,9.997 11.999,11.892 11.999,12.997 C11.999,14.103 11.104,15.998 9.998,15.998 ZM19.998,45.998 L53.999,45.998 C55.104,45.998 55.998,47.892 55.998,48.998 C55.998,50.104 55.104,51.998 53.999,51.998 L19.998,51.998 C18.893,51.998 17.997,50.104 17.997,48.998 C17.997,47.892 18.893,45.998 19.998,45.998 Z"/>
</svg>
