<svg t="1627204781376" class="icon" viewBox="0 0 1024 1024" version="1.1" xmlns="http://www.w3.org/2000/svg" p-id="17898" width="240" height="240"><path d="M236.2368 323.7888c0 23.9616 19.3024 43.3152 43.3152 43.3152a43.2128 43.2128 0 0 0 43.3152-43.3152 43.2128 43.2128 0 0 0-43.3152-43.3664 43.2128 43.2128 0 0 0-43.3152 43.3664z m336.0768 223.0272a33.9968 33.9968 0 1 0 67.9424 0 33.9968 33.9968 0 0 0-67.9424 0zM456.3968 323.7888c0 23.9616 19.3024 43.3152 43.3152 43.3152a43.2128 43.2128 0 0 0 43.3152-43.3152 43.2128 43.2128 0 0 0-43.3152-43.3664 43.2128 43.2128 0 0 0-43.3152 43.3664z" fill="#09C260" p-id="17899"></path><path d="M858.0096 0H165.9904A166.0416 166.0416 0 0 0 0.3072 166.2976V857.088a166.0416 166.0416 0 0 0 165.6832 166.2976h692.0192a166.0416 166.0416 0 0 0 165.6832-166.2976V166.2976C1023.6928 74.9568 949.3504 0 858.0096 0z m-473.6 686.1824c-38.7072 0-69.7344-8.192-108.9536-15.8208l-108.288 54.4768 31.0272-93.1328C120.32 577.28 74.0864 507.0336 74.0864 422.144c0-147.5584 139.9296-264.0896 310.272-264.0896 152.832 0 286.3104 93.1328 313.2416 217.8048a255.3344 255.3344 0 0 0-29.8496-1.7408c-147.5584 0-264.0384 110.08-264.0384 245.2992 0 22.8352 3.4816 44.544 9.3184 65.024a228.7616 228.7616 0 0 1-28.672 1.7408z m457.7792 108.288l23.4496 77.312-84.8896-46.848c-31.0272 7.6288-62.0544 15.8208-93.0816 15.8208-147.5584 0-264.0896-100.7104-264.0896-225.4336 0-124.1088 116.5312-225.3824 264.0896-225.3824 139.3152 0 263.424 101.2736 263.424 225.3824-0.5632 70.8608-46.7968 132.9152-108.9024 179.2z" fill="#09C260" p-id="17900"></path><path d="M741.5296 546.816a33.9968 33.9968 0 1 0 67.9424 0 33.9968 33.9968 0 0 0-67.9424 0z" fill="#09C260" p-id="17901"></path></svg>