<svg class="icon" viewBox="0 0 1024 1024" xmlns="http://www.w3.org/2000/svg" width="200" height="200"><path d="M512 0a512 512 0 10512 512A512 512 0 00512 0zm256 460.8a158.08 158.08 0 01-85.12 64 54.4 54.4 0 01-25.6 4.48 30.08 30.08 0 010-59.52h8.32a90.24 90.24 0 0055.68-42.88 69.12 69.12 0 0012.8-38.4A90.24 90.24 0 00640 303.36a113.92 113.92 0 00-51.2 12.8 81.28 81.28 0 00-42.88 68.48v243.2a135.04 135.04 0 01-72.32 119.68 176.64 176.64 0 01-81.28 21.12 147.84 147.84 0 01-153.6-140.8 128 128 0 0121.12-68.48 158.08 158.08 0 0185.12-64 54.4 54.4 0 0125.6-4.48 30.08 30.08 0 110 59.52h-8.32a90.24 90.24 0 00-55.68 42.88 69.12 69.12 0 00-12.8 38.4 90.24 90.24 0 0094.08 85.12 113.92 113.92 0 0051.2-12.8 81.28 81.28 0 0042.88-68.48V388.48a145.92 145.92 0 0172.32-119.68 176.64 176.64 0 0181.28-21.12 147.84 147.84 0 01153.6 140.8A144 144 0 01768 460.8z" fill="#24AF41"/></svg>